PathFileType	4	(X/Y/Z)	59_2_90_p1_0-919.trc
DataRate	CameraRate	NumFrames	NumMarkers	Units	OrigDataRate	OrigDataStartFrame	OrigNumFrames
53.0	53.0	6	27	m	53.0	0	920
Frame#	Time	RHip			RKnee			RAnkle			RBigToe			RSmallToe			RHeel			LHip			LKnee			LAnkle			LBigToe			LSmallToe			LHeel			Neck			Head			Nose			RShoulder			RElbow			RWrist			RThumb			RIndex			RPinky			LShoulder			LElbow			LWrist			LThumb			LIndex			LPinky			
		X1	Y1	Z1	X2	Y2	Z2	X3	Y3	Z3	X4	Y4	Z4	X5	Y5	Z5	X6	Y6	Z6	X7	Y7	Z7	X8	Y8	Z8	X9	Y9	Z9	X10	Y10	Z10	X11	Y11	Z11	X12	Y12	Z12	X13	Y13	Z13	X14	Y14	Z14	X15	Y15	Z15	X16	Y16	Z16	X17	Y17	Z17	X18	Y18	Z18	X19	Y19	Z19	X20	Y20	Z20	X21	Y21	Z21	X22	Y22	Z22	X23	Y23	Z23	X24	Y24	Z24	X25	Y25	Z25	X26	Y26	Z26	X27	Y27	Z27	
0	0.0	0.31996619626620726	0.5285535713726011	1.0858201417180056	0.3014274204683806	0.6284007564706154	1.5021911328780178	0.29857325853405087	0.7844871294760328	1.906615531514631	0.27860890791445986	0.5619151548544337	1.9441224081832833	0.3368936980595797	0.596440095734731	1.9378951270528566	0.28637332986557806	0.8440899198209567	1.9632267127849312	0.12443712492194643	0.5490062261015208	1.0937028234976576	0.12413389116106127	0.6533808014403226	1.5154698815613268	0.12253963033377864	0.7355102948236732	1.8726540866985901	0.11962142933675607	0.5595742962228751	1.9259835379970167	0.0701422577416558	0.6214907764813938	1.9302954085578907	0.14083960131418902	0.8157024872706728	1.931005262408881	0.23935887816901216	0.45200544853621333	0.4944191267894422	0.2555636096627935	0.4604793702991724	0.24184283447630864	0.2495515828775173	0.3617246788398373	0.36582617707263165	0.4097501589991538	0.48704658346625734	0.6139515908880843	0.3688605376114217	0.41311700428034287	0.8544412989761728	0.24427877973772422	0.2572266598809441	1.014933312524868	0.13786133949808674	0.2581425363862353	1.0549575722517854	0.16546680552974632	0.29676238563785	1.107037203107296	0.1712384304289742	0.25930552320446526	1.1178550440867883	0.0850328498995601	0.4801321790899145	0.6047599449912578	0.1173406682230288	0.35790081202131224	0.8643249941526086	0.1765555882803408	0.28515841728995417	1.041312933081916	0.18844463386161614	0.2987103335837862	1.1039760758639532	0.21925333773956232	0.33871737895443316	1.150396485300598	0.21453211470406264	0.3288057033225014	1.1544261150695942
1	0.018867924528301886	0.32375110744201213	0.5459749944159458	1.0966178826908208	0.30477123287902924	0.6449845696772635	1.5107431380960368	0.29444957180053327	0.783653724586279	1.897350077597667	0.2796062059849755	0.5608186527463977	1.939046493106966	0.33686982113042957	0.5935987127505215	1.9277540129913087	0.28193881055594244	0.8300681604550415	1.9528927870321462	0.1247610124600996	0.5508889888650994	1.0996441787440352	0.1250676290264802	0.6555420669375631	1.5218032038802964	0.1275531578814195	0.7386129888717485	1.8734297782717944	0.12280097519340531	0.5732815586541884	1.9316311272044073	0.07295427037530626	0.6364622719994001	1.9364010438701076	0.1454835534989765	0.82175400374749	1.9284178926700941	0.23944017276399773	0.4521119413707914	0.49438049764724534	0.2595712270294832	0.4466807446906577	0.24337277072456373	0.24946474334310906	0.362613133908159	0.3689244755020261	0.4092720089365481	0.48504391870957747	0.6106394285468522	0.36893370764799754	0.4133000461748968	0.854554719660547	0.2513128341789772	0.25866568101106924	1.0106774927742337	0.14646392696234548	0.25515816430432176	1.0554976606404967	0.15371154707824927	0.27660478010450523	1.0927629005983615	0.17170163329191154	0.23466090428930075	1.1101029280934156	0.08517437333358992	0.48019192173952086	0.6047599696010838	0.11708181675946272	0.3578016220463268	0.8644965952907367	0.17624609691907905	0.28619048889199883	1.037688369339985	0.18178695222871336	0.2686793742378419	1.0886536685162707	0.2076533718570466	0.33529459118445815	1.1501201564906316	0.2179441619244849	0.3322502922455058	1.1533587113077208
2	0.03773584905660377	0.3237914849607911	0.5461811711975555	1.0966143246466875	0.30584090594681335	0.643715045530526	1.5069114376327748	0.29346011840059394	0.7856740031174883	1.9023937072570074	0.2795719070633786	0.5604864114953652	1.9390767928035357	0.3377721513319409	0.5956350676393982	1.9328004509442684	0.28596027076490504	0.8459328934767585	1.9592422254420307	0.12082072388704747	0.5504420530288088	1.099668414929616	0.1250921409509996	0.6558893175478684	1.521450653684068	0.1275251596887848	0.738598689894172	1.8734140583237042	0.12269649987347504	0.5733556176899739	1.9316510914658904	0.07296056608448549	0.6363973028618445	1.936328593176759	0.145859259261907	0.820446572850604	1.9324836123175388	0.23942516420288656	0.45207889936867307	0.4943154953993255	0.2595025633481867	0.44656366811647746	0.24337565314255624	0.24950718616079107	0.3625946041017141	0.3689565026303072	0.4098092862744219	0.4870537427584415	0.6139660363959739	0.3689596895470796	0.41316724001300914	0.8544035796194256	0.2507402936369971	0.2602463838722791	1.0149014343467135	0.14546268365648649	0.25645791194145073	1.0554371652841503	0.1621264668777931	0.29256150752945465	1.1059527560769091	0.17144050547536138	0.2353190207053601	1.1165098269725624	0.08516223859993167	0.48022787567362185	0.6047573059936623	0.11707670287208387	0.35793495778969525	0.8644136986667592	0.17627859638565896	0.2863392391602713	1.0377285607789246	0.18421489351192227	0.27033011853112027	1.0890738328521996	0.21097307101366128	0.33714989948674035	1.1503845984870655	0.21906236078765004	0.33193085188466476	1.154765695013201
3	0.05660377358490566	0.32365979601759465	0.5464484637079561	1.0967117193844576	0.30190676144119655	0.6287738084726363	1.502769574251422	0.29448474842541433	0.7838012633019735	1.8974798619264936	0.27946401467215093	0.5606544493080577	1.9389373613016294	0.3377252665895809	0.5958176377226975	1.9326950505711793	0.28637107600801975	0.8438094162532533	1.9633791164133527	0.12099984595419652	0.5491535421068132	1.103132712040865	0.12592817245240953	0.6543777334116058	1.5172705677469918	0.12756017732718175	0.7384275603693136	1.8733248489480139	0.12270102348804682	0.5731108927236244	1.931521744869567	0.07017685318340768	0.6217116674920534	1.9302303438773638	0.14560889466651553	0.8222935935474136	1.928311462873289	0.23943052097603662	0.4520846835453039	0.49424366761747357	0.2594374663407177	0.4468434435900171	0.2397800140506949	0.24947526676276055	0.3625000645155709	0.36882186210043244	0.4067609812680231	0.5012054864632522	0.6142167933937362	0.36855501289060855	0.4143664316046414	0.8581716781717265	0.2469609736789274	0.2592132212397112	1.0153336226731111	0.14574340045750575	0.25600859087118316	1.0556159457054497	0.1668380104333175	0.3057899493974095	1.1127746224124404	0.17557285673981463	0.2483419896107142	1.1231030048527322	0.08512131009677779	0.4802019646732453	0.6047886703036374	0.11715276727219004	0.35788241419603706	0.8644642653164543	0.17588188876635835	0.2874947108308074	1.0413069451020414	0.19037516473377625	0.28463767588013683	1.1013513626372986	0.2074592690074243	0.33600065713022753	1.1496459516105157	0.21861214281159702	0.3308480884826258	1.1541722125972005
4	0.07547169811320754	0.3232748187552052	0.5479060785434025	1.1004587136192066	0.3047938736875419	0.6445721261869242	1.5193894065985334	0.2981857692149722	0.7868246347466379	1.9027285850757434	0.27951271424243906	0.5608063792009775	1.938992675379585	0.3378684092166554	0.5960963496043808	1.9327348482733158	0.28640394404630565	0.843857014431209	1.9632858885776014	0.11629953974923826	0.549848249716305	1.106978540072751	0.12502577755213126	0.6557924242300345	1.5214832348344136	0.12741262314477458	0.7381959157196339	1.8732957420013665	0.12183364543683337	0.5705161899465991	1.9263530215200217	0.07013224783441313	0.6217062694526027	1.9302369066568712	0.14596196713937704	0.8204391176555936	1.932320418429266	0.23927905444568745	0.4528880383566988	0.4907035955144526	0.26381278161630684	0.44798591238074303	0.24316136190800322	0.24939274069192077	0.3625616608441144	0.3689661699343019	0.4069326291311885	0.5002315103194215	0.6105836069406705	0.36873560404087874	0.41300962729210017	0.8545645004208046	0.2469504943914497	0.25872621754431124	1.0150493232398026	0.14809108499042983	0.25629409443329376	1.0599407168200354	0.16459420977172762	0.29288283938629206	1.1068428553102774	0.1752289016191805	0.2485086739421548	1.1229058126401092	0.08513974909480751	0.4802276529652774	0.6047738317882603	0.11723270149475461	0.35776772557452696	0.8646151763967284	0.18046021456576108	0.2875169538011888	1.0380091813646568	0.19329575550511036	0.2861916518448998	1.102574345227381	0.21505911915286588	0.3384133748838391	1.1516892994772527	0.22182404812030496	0.3451624575690796	1.1553402538745143
5	0.09433962264150944	0.32326977078891445	0.5439905511332193	1.0918823073773345	0.30464544997999377	0.6446557954561122	1.5192449995657142	0.2935634793309514	0.7856999211182114	1.9024982521330336	0.27946253317288794	0.5606073373598869	1.9388694527451478	0.3378349426214025	0.5958151038691843	1.93265976675971	0.2860725411799077	0.845980333930176	1.9593818230040512	0.11623150884731479	0.5497041363645293	1.1068099495396924	0.12534999118551626	0.6544037445568427	1.5251132443310116	0.12752608872279436	0.7383655366208594	1.8733688339907315	0.12265572205011757	0.5733647862425142	1.931675655141109	0.07012464486977477	0.6216613918637436	1.9302611627856148	0.14571642717359048	0.8221128634774231	1.9282253203422866	0.23923520342943927	0.45278351590840166	0.4907944101481735	0.26380030426405127	0.4481388889976463	0.2431574222394438	0.2493499998098124	0.36263667790150667	0.36885823966228426	0.4069404557423987	0.5002217819061293	0.6105414718309238	0.36884286572270963	0.41329969150012447	0.8546579382968013	0.24714935729265486	0.25897906332342613	1.0150121131514753	0.14960413316452467	0.2569149779243579	1.058502728581036	0.1614534344548445	0.28043758759825493	1.0970040390075415	0.1753268718182588	0.2504475417133118	1.1203070415559928	0.08512205529337769	0.48022556591553006	0.6047788334345287	0.11715524731966767	0.35773846115292957	0.8646177533993776	0.1764920125201629	0.2867507861738695	1.0376538341742594	0.1885393243629357	0.27400505492953114	1.096138586941423	0.21118509401955343	0.3272897458717913	1.148806347486309	0.22242427333936926	0.33471883962026355	1.1536567949776777
